<svg width="28" height="28" viewBox="0 0 28 28" fill="none" xmlns="http://www.w3.org/2000/svg">
<path fill-rule="evenodd" clip-rule="evenodd" d="M22.8667 14.0885C22.9655 14.0885 23.8138 14.5652 24.0527 14.8192C24.2021 14.978 24.1965 15.1897 24.1904 15.418C24.1891 15.4639 24.1879 15.5105 24.1879 15.5575L24.1908 20.3845C24.1908 20.6734 24.0084 20.9331 23.7297 21.0392L14.2186 24.682C13.8392 24.8262 13.6213 24.7971 13.4384 24.7092L2.73652 19.5435C2.4894 19.4242 2.33325 19.18 2.33325 18.9132V8.58164C2.33325 8.29471 2.51324 8.03689 2.78857 7.92888L12.4723 4.13484C12.6547 4.06439 12.8576 4.0658 13.0366 4.14141L18.0645 6.24342C18.6609 6.49279 18.6434 7.31039 18.046 7.54238L18.0499 7.55083L9.80072 10.7527L13.827 12.5119L16.6611 11.4083C16.7047 11.3913 16.7476 11.3735 16.79 11.3559L16.7901 11.3558L16.7902 11.3558C17.009 11.2649 17.212 11.1805 17.4219 11.2556C17.7551 11.3745 18.53 11.9544 18.567 12.0432C18.583 12.0817 18.6064 12.17 18.5689 12.1845L14.4988 13.7535V23.059L22.7315 19.906L22.7286 14.1397C22.7286 14.1007 22.8234 14.0885 22.8667 14.0885ZM3.79272 9.67351V18.4779L13.079 22.9416V13.731L8.96124 11.9319V17.8538C8.96124 17.8928 8.86638 17.905 8.82308 17.905C8.72434 17.905 7.87597 17.4288 7.63712 17.1742C7.4877 17.0159 7.49334 16.8042 7.49942 16.576C7.50065 16.53 7.50189 16.4834 7.50189 16.4365V11.2942L3.79272 9.67351ZM12.738 5.55169L15.8921 6.8699L7.96056 9.94872L4.91296 8.61688L12.738 5.55169ZM24.4226 6.14845C24.4501 6.17966 24.478 6.21133 24.5069 6.24249C24.788 6.55092 26.128 8.06758 26.6737 8.68655C26.8878 8.92964 26.8861 9.29619 26.6695 9.53674C26.6445 9.5645 26.5916 9.62352 26.518 9.70569C26.0652 10.2112 24.8276 11.5928 24.4791 11.9621C24.4503 11.9927 24.4225 12.0237 24.3951 12.0542C24.2575 12.2076 24.13 12.3497 23.9381 12.3639C23.6314 12.3864 22.8059 12.1878 22.744 12.1284C22.7167 12.1026 22.6649 12.0376 22.6889 12.0122L24.7261 9.8248H20.378C20.2455 9.8248 20.138 9.71734 20.138 9.5848V8.73225C20.138 8.5997 20.2455 8.49225 20.378 8.49225H24.724L22.7175 6.17504C22.6935 6.14958 22.7461 6.0851 22.7735 6.05922C22.8358 6.00025 23.6633 5.81019 23.97 5.83564C24.1611 5.85152 24.2869 5.99441 24.4226 6.14845Z" fill="#E75204"/>
</svg>
