<svg width="24" height="24" viewBox="0 0 24 24" fill="none" xmlns="http://www.w3.org/2000/svg">
<path fill-rule="evenodd" clip-rule="evenodd" d="M10.2162 18.416L15.7146 12.762C16.0925 12.3733 16.0955 11.7566 15.7213 11.3643L10.2326 5.61042C9.89239 5.25372 9.32647 5.23951 8.96863 5.57868L8.93989 5.60719C8.5772 5.98361 8.57538 6.57772 8.93575 6.95635L13.7994 12.0664L8.94393 17.048C8.58016 17.4212 8.57837 18.0146 8.93989 18.39C9.28513 18.7485 9.85656 18.7601 10.2162 18.416Z" fill="#86889D"/>
<mask id="mask0_6624_9588" style="mask-type:luminance" maskUnits="userSpaceOnUse" x="8" y="5" width="8" height="14">
<path fill-rule="evenodd" clip-rule="evenodd" d="M10.2162 18.416L15.7146 12.762C16.0925 12.3733 16.0955 11.7566 15.7213 11.3643L10.2326 5.61042C9.89239 5.25372 9.32647 5.23951 8.96863 5.57868L8.93989 5.60719C8.5772 5.98361 8.57538 6.57772 8.93575 6.95635L13.7994 12.0664L8.94393 17.048C8.58016 17.4212 8.57837 18.0146 8.93989 18.39C9.28513 18.7485 9.85656 18.7601 10.2162 18.416Z" fill="white"/>
</mask>
<g mask="url(#mask0_6624_9588)">
</g>
</svg>
