<svg width="30" height="31" viewBox="0 0 30 31" fill="none" xmlns="http://www.w3.org/2000/svg">
<g id="&#226;&#153;&#163;&#239;&#184;&#143; Icon">
<g id="&#226;&#153;&#163;&#239;&#184;&#143; Icon 2">
<path id="&#226;&#153;&#163;&#239;&#184;&#143; Icon_2" fill-rule="evenodd" clip-rule="evenodd" d="M24.6043 12.9721L26.6221 14.1852C27.0248 14.4216 27.5 15.1561 27.5 16.2339V18.8188C27.5 19.2232 27.1494 19.5514 26.7175 19.5514H24.1113C23.7629 20.8138 22.5401 21.75 21.0842 21.75C19.6282 21.75 18.4054 20.8138 18.057 19.5514H11.8618C11.5133 20.8138 10.29 21.75 8.8341 21.75C7.10846 21.75 5.70416 20.4358 5.70416 18.8198C5.70416 17.2038 7.10846 15.8896 8.8341 15.8896C10.2895 15.8896 11.5118 16.8248 11.8613 18.0863H18.0575C18.4065 16.8248 19.6293 15.8896 21.0842 15.8896C22.539 15.8896 23.7618 16.8248 24.1108 18.0863H25.935V16.2339C25.935 16.1514 25.9364 16.0776 25.9377 16.0113V16.0112V16.0111C25.9445 15.6555 25.9472 15.514 25.7076 15.3773L23.7707 14.2121C22.0312 13.1869 21.1332 12.2234 20.4062 11.4433C19.4653 10.4336 18.8107 9.73132 16.9891 9.60046C15.6292 9.50376 8.78037 9.37337 4.56278 9.55406C3.92166 12.266 4.10737 19.4747 4.10737 19.4747C4.10737 19.5152 4.00721 19.5284 3.96078 19.5289C3.85489 19.5299 2.94251 19.0415 2.68325 18.7798C2.5207 18.6149 2.52395 18.3928 2.52746 18.1537C2.52814 18.1074 2.52882 18.0604 2.52832 18.013L2.52362 17.3796C2.47354 15.0682 2.43233 11.2169 3.18873 8.65596C3.27741 8.3561 3.55859 8.14122 3.89036 8.12022C7.76835 7.91169 15.3924 8.01181 17.1097 8.13976C19.6167 8.32026 20.3504 9.13198 21.3725 10.2626C22.0815 11.0471 22.9293 11.985 24.6043 12.9721ZM10.2263 12.8904C10.1752 12.8891 10.1235 12.8879 10.0713 12.8879H6.20845C6.16464 12.8879 6.15159 12.7941 6.15159 12.7507C6.15159 12.6515 6.68055 11.8013 6.96277 11.561C7.14044 11.4098 7.37795 11.415 7.63372 11.4206H7.63372H7.63373C7.68285 11.4217 7.73264 11.4228 7.78281 11.4228H11.6462C11.6895 11.4228 11.7031 11.518 11.7031 11.5615C11.7031 11.6606 11.1736 12.5119 10.8914 12.7521C10.715 12.9021 10.4798 12.8965 10.2263 12.8904ZM21.0842 20.285C20.2213 20.285 19.5192 19.6277 19.5192 18.82C19.5192 18.0122 20.2213 17.3549 21.0842 17.3549C21.947 17.3549 22.6491 18.0122 22.6491 18.82C22.6491 19.6277 21.947 20.285 21.0842 20.285ZM7.26913 18.82C7.26913 19.6277 7.97128 20.285 8.8341 20.285C9.69744 20.285 10.3991 19.6277 10.3991 18.82C10.3991 18.0122 9.69744 17.3549 8.8341 17.3549C7.97128 17.3549 7.26913 18.0122 7.26913 18.82Z" fill="#E75204"/>
<mask id="mask0_6624_18229" style="mask-type:luminance" maskUnits="userSpaceOnUse" x="2" y="8" width="26" height="14">
<path id="&#226;&#153;&#163;&#239;&#184;&#143; Icon_3" fill-rule="evenodd" clip-rule="evenodd" d="M24.6043 12.9721L26.6221 14.1852C27.0248 14.4216 27.5 15.1561 27.5 16.2339V18.8188C27.5 19.2232 27.1494 19.5514 26.7175 19.5514H24.1113C23.7629 20.8138 22.5401 21.75 21.0842 21.75C19.6282 21.75 18.4054 20.8138 18.057 19.5514H11.8618C11.5133 20.8138 10.29 21.75 8.8341 21.75C7.10846 21.75 5.70416 20.4358 5.70416 18.8198C5.70416 17.2038 7.10846 15.8896 8.8341 15.8896C10.2895 15.8896 11.5118 16.8248 11.8613 18.0863H18.0575C18.4065 16.8248 19.6293 15.8896 21.0842 15.8896C22.539 15.8896 23.7618 16.8248 24.1108 18.0863H25.935V16.2339C25.935 16.1514 25.9364 16.0776 25.9377 16.0113V16.0112V16.0111C25.9445 15.6555 25.9472 15.514 25.7076 15.3773L23.7707 14.2121C22.0312 13.1869 21.1332 12.2234 20.4062 11.4433C19.4653 10.4336 18.8107 9.73132 16.9891 9.60046C15.6292 9.50376 8.78037 9.37337 4.56278 9.55406C3.92166 12.266 4.10737 19.4747 4.10737 19.4747C4.10737 19.5152 4.00721 19.5284 3.96078 19.5289C3.85489 19.5299 2.94251 19.0415 2.68325 18.7798C2.5207 18.6149 2.52395 18.3928 2.52746 18.1537C2.52814 18.1074 2.52882 18.0604 2.52832 18.013L2.52362 17.3796C2.47354 15.0682 2.43233 11.2169 3.18873 8.65596C3.27741 8.3561 3.55859 8.14122 3.89036 8.12022C7.76835 7.91169 15.3924 8.01181 17.1097 8.13976C19.6167 8.32026 20.3504 9.13198 21.3725 10.2626C22.0815 11.0471 22.9293 11.985 24.6043 12.9721ZM10.2263 12.8904C10.1752 12.8891 10.1235 12.8879 10.0713 12.8879H6.20845C6.16464 12.8879 6.15159 12.7941 6.15159 12.7507C6.15159 12.6515 6.68055 11.8013 6.96277 11.561C7.14044 11.4098 7.37795 11.415 7.63372 11.4206H7.63372H7.63373C7.68285 11.4217 7.73264 11.4228 7.78281 11.4228H11.6462C11.6895 11.4228 11.7031 11.518 11.7031 11.5615C11.7031 11.6606 11.1736 12.5119 10.8914 12.7521C10.715 12.9021 10.4798 12.8965 10.2263 12.8904ZM21.0842 20.285C20.2213 20.285 19.5192 19.6277 19.5192 18.82C19.5192 18.0122 20.2213 17.3549 21.0842 17.3549C21.947 17.3549 22.6491 18.0122 22.6491 18.82C22.6491 19.6277 21.947 20.285 21.0842 20.285ZM7.26913 18.82C7.26913 19.6277 7.97128 20.285 8.8341 20.285C9.69744 20.285 10.3991 19.6277 10.3991 18.82C10.3991 18.0122 9.69744 17.3549 8.8341 17.3549C7.97128 17.3549 7.26913 18.0122 7.26913 18.82Z" fill="white"/>
</mask>
<g mask="url(#mask0_6624_18229)">
</g>
</g>
</g>
</svg>
