<svg xmlns="http://www.w3.org/2000/svg" width="56" height="56" viewBox="0 0 300 300">
    <g fill="none" fill-rule="evenodd">
        <path fill-rule="evenodd" clip-rule="evenodd" d="M109.312 52L50 147.34H158.329L186.096 52H109.312Z" fill="#D70036"/>
        <path fill-rule="evenodd" clip-rule="evenodd" d="M118.169 52L64.0002 139.203V247.672H172.329V139.203L118.169 52Z" fill="#FCD6AD"/>
        <path fill-rule="evenodd" clip-rule="evenodd" d="M172 247.469H248.787V139H172V247.469Z" fill="#FEF0E3"/>
        <path fill-rule="evenodd" clip-rule="evenodd" d="M172 154.211H248.786V139H172V154.211Z" fill="#FCD6AD"/>
        <path fill-rule="evenodd" clip-rule="evenodd" d="M110 52L169.43 147.34H260.895L201.47 52H110Z" fill="#E75204"/>
        <path fill-rule="evenodd" clip-rule="evenodd" d="M118 216.84H159.786V175H118V216.84Z" fill="#E0EFFA"/>
        <path fill-rule="evenodd" clip-rule="evenodd" d="M159.786 216.84H118L159.786 175V216.84Z" fill="#C9E5F8"/>
        <path fill-rule="evenodd" clip-rule="evenodd" d="M88.2471 164C97.2214 164 104.494 171.283 104.494 180.268V247.413H72.0002V180.268C72.0002 171.283 79.2729 164 88.2471 164Z" fill="#F8BC78"/>
        <path fill-rule="evenodd" clip-rule="evenodd" d="M31.0002 234.065C31.0002 228.407 34.3459 223.535 39.1623 221.299C38.7957 220.215 38.5897 219.057 38.5897 217.85C38.5897 211.86 43.4395 207 49.4227 207C55.4058 207 60.2556 211.86 60.2556 217.85C60.2556 218.897 60.0985 219.909 59.8238 220.868C60.5106 220.731 61.2241 220.654 61.9495 220.654C67.9352 220.654 72.7859 225.514 72.7859 231.504C72.7859 231.601 72.7748 231.696 72.7705 231.795H72.7859V237.775C78.417 237.855 82.9587 242.448 82.9587 248.11H72.7859V248.145H43.7864V248.076C36.6211 247.43 31.0002 241.408 31.0002 234.065Z" fill="#009537"/>
        <path fill-rule="evenodd" clip-rule="evenodd" d="M260.28 45.64C260.28 52.6889 258.19 59.5796 254.274 65.4405C250.357 71.3015 244.791 75.8696 238.279 78.5671C231.766 81.2646 224.6 81.9704 217.687 80.5952C210.774 79.22 204.423 75.8256 199.439 70.8413C194.454 65.8569 191.06 59.5065 189.685 52.593C188.31 45.6795 189.015 38.5135 191.713 32.0012C194.41 25.4888 198.979 19.9226 204.84 16.0064C210.7 12.0903 217.591 10 224.64 10C229.32 10 233.955 10.9219 238.279 12.7129C242.603 14.504 246.532 17.1292 249.841 20.4387C253.151 23.7482 255.776 27.6771 257.567 32.0012C259.358 36.3252 260.28 40.9597 260.28 45.64Z" fill="#009537"/>
        <path fill-rule="evenodd" clip-rule="evenodd" d="M237.79 30.54L233.97 34.54L218.57 49.88L214.08 45.57L210.08 41.57L202.27 49.35L206.27 53.35L214.58 61.62L218.4 65.62L222.4 61.62L241.79 42.29L245.79 38.29L237.79 30.54Z" fill="#F3F4F7"/>
    </g>
</svg>
