<svg width="30" height="31" viewBox="0 0 30 31" fill="none" xmlns="http://www.w3.org/2000/svg">
<path fill-rule="evenodd" clip-rule="evenodd" d="M24.2814 25.5C24.6759 25.5 24.9953 25.1828 24.9953 24.7909V16.5941V16.4537C24.9953 16.1715 25.0386 15.9025 24.863 15.7106C24.6288 15.4548 23.9817 14.975 23.7026 14.975C23.4235 14.975 23.3294 14.9873 23.3294 15.0266V17.0668V23.8489H6.65882V13.2964L15 6.38968L22.9816 12.5139L24.5784 13.8007C24.6093 13.8253 24.6769 13.7625 24.7035 13.7299C24.7644 13.6552 24.911 12.4734 24.8577 12.1321C24.8182 11.8755 24.5803 11.7398 24.3594 11.5625L23.8792 11.1768L15.4541 4.408C15.1852 4.19149 14.7982 4.19811 14.5374 4.42407L5.24606 12.438C5.08948 12.5722 5 12.7675 5 12.9731V24.7909C5 25.1828 5.31936 25.5 5.71391 25.5H24.2814Z" fill="#4E4EE2"/>
<mask id="mask0_6624_9690" style="mask-type:luminance" maskUnits="userSpaceOnUse" x="5" y="4" width="20" height="22">
<path fill-rule="evenodd" clip-rule="evenodd" d="M24.2814 25.5C24.6759 25.5 24.9953 25.1828 24.9953 24.7909V16.5941V16.4537C24.9953 16.1715 25.0386 15.9025 24.863 15.7106C24.6288 15.4548 23.9817 14.975 23.7026 14.975C23.4235 14.975 23.3294 14.9873 23.3294 15.0266V17.0668V23.8489H6.65882V13.2964L15 6.38968L22.9816 12.5139L24.5784 13.8007C24.6093 13.8253 24.6769 13.7625 24.7035 13.7299C24.7644 13.6552 24.911 12.4734 24.8577 12.1321C24.8182 11.8755 24.5803 11.7398 24.3594 11.5625L23.8792 11.1768L15.4541 4.408C15.1852 4.19149 14.7982 4.19811 14.5374 4.42407L5.24606 12.438C5.08948 12.5722 5 12.7675 5 12.9731V24.7909C5 25.1828 5.31936 25.5 5.71391 25.5H24.2814Z" fill="white"/>
</mask>
<g mask="url(#mask0_6624_9690)">
</g>
</svg>
