<svg xmlns="http://www.w3.org/2000/svg" width="99" height="98" viewBox="0 0 99 98">
    <g fill="none" fill-rule="evenodd">
        <path fill="#000" fill-opacity=".201" d="M71.54 51.086c-2.42-1.476-17.508-2.613-35.77-2.613-18.262 0-33.35 1.137-35.77 2.613h71.54z" transform="translate(13.113 26.787)"/>
        <g>
            <path fill="#CBCBCB" d="M2.79 2.59h34.604c.847 0 1.534.689 1.534 1.54v45.233c0 .851-.687 1.541-1.534 1.541H1.795c-.847 0-1.534-.69-1.534-1.54V4.13c0-.253.06-.492.168-.703l.006-.011c.025-.047.052-.093.08-.137L2.792.915v1.674z" transform="translate(13.113 26.787) translate(14.827)"/>
            <path fill="#E3E3E3" d="M4.085.21h34.717c.847 0 1.534.692 1.534 1.545V49.36c0 .853-.687 1.544-1.534 1.544H4.085c-.847 0-1.534-.691-1.534-1.544V1.755C2.551.902 3.238.21 4.085.21z" transform="translate(13.113 26.787) translate(14.827)"/>
            <path fill="#B5B5B5" d="M21.836 0.294H22.836V50.861999999999995H21.836z" transform="translate(13.113 26.787) translate(14.827)"/>
            <g>
                <path fill="#FFF" d="M0.021 12.163L23.482 12.163 23.482 0.021 0.021 0.021z" transform="translate(13.113 26.787) translate(14.827) translate(7.43 4.998)"/>
                <path fill="#66728A" d="M19.51 9.837L20.806 9.837 20.806 2.49 19.51 2.49zM4.384 9.837L6.544 9.837 6.544 2.49 4.384 2.49zM9.138 9.837L11.731 9.837 11.731 2.49 9.138 2.49zM16.917 9.837L18.213 9.837 18.213 2.49 16.917 2.49zM7.841 9.837L8.273 9.837 8.273 2.49 7.841 2.49zM14.756 9.837L15.62 9.837 15.62 2.49 14.756 2.49zM13.027 9.837L13.891 9.837 13.891 2.49 13.027 2.49zM2.655 9.837L3.519 9.837 3.519 2.49 2.655 2.49z" transform="translate(13.113 26.787) translate(14.827) translate(7.43 4.998)"/>
            </g>
        </g>
    </g>
</svg>
