<svg xmlns="http://www.w3.org/2000/svg" xmlns:xlink="http://www.w3.org/1999/xlink" width="98" height="98" viewBox="0 0 98 98">
    <defs>
        <path id="lkhmph8cka" d="M0.088 0.043L77.647 0.043 77.647 63.386 0.088 63.386z"/>
    </defs>
    <g fill="none" fill-rule="evenodd">
        <path fill="#000" fill-opacity=".201" d="M89.693 63.381c-3.027-1.624-21.896-2.874-44.737-2.874-22.84 0-41.71 1.25-44.737 2.874h89.474z" transform="translate(2.613 14.373)"/>
        <g transform="translate(2.613 14.373) translate(9.666)">
            <mask id="46s5pub9rb" fill="#fff">
                <use xlink:href="#lkhmph8cka"/>
            </mask>
            <path fill="#CA9E69" d="M0.088 63.386L70.46 63.386 70.46 25.196 12.828 25.153 0.088 30.852z" mask="url(#46s5pub9rb)"/>
        </g>
        <path fill="#A67641" d="M56.056 25.153L56.056 36.292 43.839 39.527 43.839 25.17z" transform="translate(2.613 14.373)"/>
        <g>
            <path fill="#FFF" d="M0.025 14.866L28.7 14.866 28.7 0.025 0.025 0.025z" transform="translate(2.613 14.373) translate(35.574 43.48)"/>
            <path fill="#66728A" d="M23.845 12.023L25.43 12.023 25.43 3.044 23.845 3.044zM5.358 12.023L7.999 12.023 7.999 3.044 5.358 3.044zM11.168 12.023L14.337 12.023 14.337 3.044 11.168 3.044zM20.676 12.023L22.261 12.023 22.261 3.044 20.676 3.044zM9.583 12.023L10.112 12.023 10.112 3.044 9.583 3.044zM18.035 12.023L19.091 12.023 19.091 3.044 18.035 3.044zM15.922 12.023L16.978 12.023 16.978 3.044 15.922 3.044zM3.245 12.023L4.301 12.023 4.301 3.044 3.245 3.044z" transform="translate(2.613 14.373) translate(35.574 43.48)"/>
        </g>
        <path fill="#A67641" d="M9.666 63.386L22.494 63.386 22.494 25.153 9.666 28.657z" transform="translate(2.613 14.373)"/>
    </g>
</svg>
