<svg width="30" height="31" viewBox="0 0 30 31" fill="none" xmlns="http://www.w3.org/2000/svg">
<path fill-rule="evenodd" clip-rule="evenodd" d="M15.8989 7.75108C15.8989 7.78268 15.8903 7.85022 15.86 7.85022H9.47634L9.4785 7.84695H9.28712C9.07196 7.84695 8.86652 7.87855 8.71947 7.74999C8.52377 7.57786 8.15614 6.84248 8.15614 6.77167C8.15614 6.74007 8.16588 6.67253 8.19507 6.67253H14.5798L14.5776 6.6758H14.7679C14.9842 6.6758 15.1896 6.6442 15.3367 6.77276C15.5324 6.94489 15.8989 7.68027 15.8989 7.75108ZM15.8989 11.1785C15.8989 11.2101 15.8903 11.2787 15.86 11.2787H9.47634L9.4785 11.2744H9.28712C9.07196 11.2744 8.86652 11.307 8.71947 11.1774C8.52377 11.0053 8.15614 10.271 8.15614 10.1991C8.15614 10.1686 8.16588 10.0999 8.19507 10.0999H14.5798L14.5776 10.1032H14.7679C14.9842 10.1032 15.1896 10.0716 15.3367 10.2013C15.5324 10.3723 15.8989 11.1088 15.8989 11.1785ZM12.6887 18.0344C12.6887 18.066 12.679 18.1335 12.6498 18.1335H9.47634L9.4785 18.1302H9.28712C9.07196 18.1302 8.86652 18.1629 8.71947 18.0333C8.52377 17.8612 8.15614 17.1258 8.15614 17.055C8.15614 17.0245 8.16588 16.9558 8.19507 16.9558H11.3696L11.3674 16.9591H11.5577C11.774 16.9591 11.9794 16.9275 12.1265 17.0571C12.3211 17.2282 12.6887 17.9636 12.6887 18.0344ZM15.8989 14.607C15.8989 14.6375 15.8903 14.7061 15.86 14.7061H9.47634L9.4785 14.7028H9.28712C9.07196 14.7028 8.86652 14.7344 8.71947 14.6059C8.52377 14.4338 8.15614 13.6984 8.15614 13.6276C8.15614 13.596 8.16588 13.5284 8.19507 13.5284H14.5798L14.5776 13.5317H14.7679C14.9842 13.5317 15.1896 13.499 15.3367 13.6287C15.5324 13.8008 15.8989 14.5362 15.8989 14.607ZM19.0561 3.61772V16.8676C19.0561 16.9014 19.0215 16.9122 18.9848 16.9122C18.8972 16.9122 18.0538 16.4939 17.8441 16.2717C17.7013 16.1202 17.6278 15.8511 17.6278 15.7139V4.37053H6.40886V20.137H11.8713C12.1265 20.137 12.3687 20.1 12.5417 20.2514C12.772 20.454 13.2045 21.3202 13.2045 21.404C13.2045 21.44 13.1936 21.5206 13.158 21.5206H5.63901C5.28653 21.5206 5 21.245 5 20.9029V3.61772C5 3.27672 5.28653 3 5.63901 3H18.4171C18.7696 3 19.0561 3.27672 19.0561 3.61772ZM14.8069 16.8077L18.4052 18.7556C18.4658 18.7883 18.5188 18.8329 18.5631 18.8863L23.4719 24.8979C23.9001 25.4219 23.8255 26.1987 23.3054 26.6312L22.0014 27.7185C21.4814 28.151 20.7137 28.0769 20.2855 27.5529L15.9216 22.2091C15.6383 21.8627 15.5637 21.3899 15.7454 20.9465C15.8211 20.7602 15.9562 20.6055 16.1087 20.478L17.3878 19.4125C17.3964 19.4049 17.3954 19.3918 17.3856 19.3875L15.4351 18.3307C15.4232 18.3242 15.4102 18.3372 15.4145 18.3503C15.6362 19.1184 15.5486 18.8144 15.7173 19.3973C15.7746 19.5966 15.8589 19.7775 15.7767 19.9485C15.6664 20.1773 15.1885 20.6861 15.1215 20.7068C15.0923 20.7144 15.0253 20.7253 15.0177 20.6981C14.2306 17.9766 14.9366 20.4192 14.0673 17.4134C14.0381 17.3099 14.0403 17.2031 14.0727 17.1051C14.1722 16.7968 14.5247 16.654 14.8069 16.8077ZM18.2041 20.1185C18.1987 20.112 18.189 20.1109 18.1825 20.1163L16.7455 21.3147C16.6666 21.3801 16.6547 21.501 16.7207 21.5805L21.0748 26.9123C21.1397 26.9929 21.2586 27.0038 21.3376 26.9373L22.6545 25.8414C22.727 25.7804 22.7378 25.6703 22.6772 25.5962L18.2041 20.1185Z" fill="#4E4EE2"/>
<mask id="mask0_6624_9266" style="mask-type:luminance" maskUnits="userSpaceOnUse" x="5" y="3" width="19" height="25">
<path fill-rule="evenodd" clip-rule="evenodd" d="M15.8989 7.75108C15.8989 7.78268 15.8903 7.85022 15.86 7.85022H9.47634L9.4785 7.84695H9.28712C9.07196 7.84695 8.86652 7.87855 8.71947 7.74999C8.52377 7.57786 8.15614 6.84248 8.15614 6.77167C8.15614 6.74007 8.16588 6.67253 8.19507 6.67253H14.5798L14.5776 6.6758H14.7679C14.9842 6.6758 15.1896 6.6442 15.3367 6.77276C15.5324 6.94489 15.8989 7.68027 15.8989 7.75108ZM15.8989 11.1785C15.8989 11.2101 15.8903 11.2787 15.86 11.2787H9.47634L9.4785 11.2744H9.28712C9.07196 11.2744 8.86652 11.307 8.71947 11.1774C8.52377 11.0053 8.15614 10.271 8.15614 10.1991C8.15614 10.1686 8.16588 10.0999 8.19507 10.0999H14.5798L14.5776 10.1032H14.7679C14.9842 10.1032 15.1896 10.0716 15.3367 10.2013C15.5324 10.3723 15.8989 11.1088 15.8989 11.1785ZM12.6887 18.0344C12.6887 18.066 12.679 18.1335 12.6498 18.1335H9.47634L9.4785 18.1302H9.28712C9.07196 18.1302 8.86652 18.1629 8.71947 18.0333C8.52377 17.8612 8.15614 17.1258 8.15614 17.055C8.15614 17.0245 8.16588 16.9558 8.19507 16.9558H11.3696L11.3674 16.9591H11.5577C11.774 16.9591 11.9794 16.9275 12.1265 17.0571C12.3211 17.2282 12.6887 17.9636 12.6887 18.0344ZM15.8989 14.607C15.8989 14.6375 15.8903 14.7061 15.86 14.7061H9.47634L9.4785 14.7028H9.28712C9.07196 14.7028 8.86652 14.7344 8.71947 14.6059C8.52377 14.4338 8.15614 13.6984 8.15614 13.6276C8.15614 13.596 8.16588 13.5284 8.19507 13.5284H14.5798L14.5776 13.5317H14.7679C14.9842 13.5317 15.1896 13.499 15.3367 13.6287C15.5324 13.8008 15.8989 14.5362 15.8989 14.607ZM19.0561 3.61772V16.8676C19.0561 16.9014 19.0215 16.9122 18.9848 16.9122C18.8972 16.9122 18.0538 16.4939 17.8441 16.2717C17.7013 16.1202 17.6278 15.8511 17.6278 15.7139V4.37053H6.40886V20.137H11.8713C12.1265 20.137 12.3687 20.1 12.5417 20.2514C12.772 20.454 13.2045 21.3202 13.2045 21.404C13.2045 21.44 13.1936 21.5206 13.158 21.5206H5.63901C5.28653 21.5206 5 21.245 5 20.9029V3.61772C5 3.27672 5.28653 3 5.63901 3H18.4171C18.7696 3 19.0561 3.27672 19.0561 3.61772ZM14.8069 16.8077L18.4052 18.7556C18.4658 18.7883 18.5188 18.8329 18.5631 18.8863L23.4719 24.8979C23.9001 25.4219 23.8255 26.1987 23.3054 26.6312L22.0014 27.7185C21.4814 28.151 20.7137 28.0769 20.2855 27.5529L15.9216 22.2091C15.6383 21.8627 15.5637 21.3899 15.7454 20.9465C15.8211 20.7602 15.9562 20.6055 16.1087 20.478L17.3878 19.4125C17.3964 19.4049 17.3954 19.3918 17.3856 19.3875L15.4351 18.3307C15.4232 18.3242 15.4102 18.3372 15.4145 18.3503C15.6362 19.1184 15.5486 18.8144 15.7173 19.3973C15.7746 19.5966 15.8589 19.7775 15.7767 19.9485C15.6664 20.1773 15.1885 20.6861 15.1215 20.7068C15.0923 20.7144 15.0253 20.7253 15.0177 20.6981C14.2306 17.9766 14.9366 20.4192 14.0673 17.4134C14.0381 17.3099 14.0403 17.2031 14.0727 17.1051C14.1722 16.7968 14.5247 16.654 14.8069 16.8077ZM18.2041 20.1185C18.1987 20.112 18.189 20.1109 18.1825 20.1163L16.7455 21.3147C16.6666 21.3801 16.6547 21.501 16.7207 21.5805L21.0748 26.9123C21.1397 26.9929 21.2586 27.0038 21.3376 26.9373L22.6545 25.8414C22.727 25.7804 22.7378 25.6703 22.6772 25.5962L18.2041 20.1185Z" fill="white"/>
</mask>
<g mask="url(#mask0_6624_9266)">
</g>
</svg>
