<svg width="30" height="31" viewBox="0 0 30 31" fill="none" xmlns="http://www.w3.org/2000/svg">
<path fill-rule="evenodd" clip-rule="evenodd" d="M15 13.25C12.5188 13.25 10.5 11.2312 10.5 8.75C10.5 6.26879 12.5188 4.25 15 4.25C17.4812 4.25 19.5 6.26879 19.5 8.75C19.5 11.2312 17.4812 13.25 15 13.25ZM22.277 26.0226C22.4617 25.8325 22.5 25.5666 22.5 25.2874L22.5 25.2881C22.4998 25.3099 22.4947 25.7886 22.4947 18.2574C22.4947 16.6012 21.1033 14.75 19.2411 14.75H10.7537C8.89142 14.75 7.5 16.6012 7.5 18.2574V25.6045L7.50054 25.6637C7.50428 26.1251 7.5091 26.7198 8.25541 26.7198H17.8392C17.841 26.7198 17.8425 26.7197 17.844 26.7195C17.8455 26.7193 17.847 26.7191 17.8489 26.7191H19.561C19.6023 26.7191 19.6158 26.6672 19.6158 26.6258C19.6158 26.5311 19.1074 25.7546 18.8371 25.5245C18.6336 25.3519 18.349 25.3162 18.0502 25.3162L9.00255 25.3169V18.2574C9.00255 17.3294 9.82779 16.153 10.7544 16.153H19.2418C20.1692 16.153 20.9937 17.3294 20.9937 18.2574V25.2236C20.9937 25.2327 20.9951 25.2416 20.9966 25.2505L20.9966 25.2505C20.9975 25.256 20.9984 25.2615 20.9989 25.2671V26.6988C20.9989 26.7374 21.0545 26.75 21.0988 26.75C21.1994 26.75 22.0307 26.2751 22.277 26.0226ZM12 8.75C12 7.09604 13.346 5.75 15 5.75C16.654 5.75 18 7.09604 18 8.75C18 10.404 16.654 11.75 15 11.75C13.346 11.75 12 10.404 12 8.75Z" fill="#3D43E6"/>
<mask id="mask0_6624_9287" style="mask-type:luminance" maskUnits="userSpaceOnUse" x="7" y="4" width="16" height="23">
<path fill-rule="evenodd" clip-rule="evenodd" d="M15 13.25C12.5188 13.25 10.5 11.2312 10.5 8.75C10.5 6.26879 12.5188 4.25 15 4.25C17.4812 4.25 19.5 6.26879 19.5 8.75C19.5 11.2312 17.4812 13.25 15 13.25ZM22.277 26.0226C22.4617 25.8325 22.5 25.5666 22.5 25.2874L22.5 25.2881C22.4998 25.3099 22.4947 25.7886 22.4947 18.2574C22.4947 16.6012 21.1033 14.75 19.2411 14.75H10.7537C8.89142 14.75 7.5 16.6012 7.5 18.2574V25.6045L7.50054 25.6637C7.50428 26.1251 7.5091 26.7198 8.25541 26.7198H17.8392C17.841 26.7198 17.8425 26.7197 17.844 26.7195C17.8455 26.7193 17.847 26.7191 17.8489 26.7191H19.561C19.6023 26.7191 19.6158 26.6672 19.6158 26.6258C19.6158 26.5311 19.1074 25.7546 18.8371 25.5245C18.6336 25.3519 18.349 25.3162 18.0502 25.3162L9.00255 25.3169V18.2574C9.00255 17.3294 9.82779 16.153 10.7544 16.153H19.2418C20.1692 16.153 20.9937 17.3294 20.9937 18.2574V25.2236C20.9937 25.2327 20.9951 25.2416 20.9966 25.2505L20.9966 25.2505C20.9975 25.256 20.9984 25.2615 20.9989 25.2671V26.6988C20.9989 26.7374 21.0545 26.75 21.0988 26.75C21.1994 26.75 22.0307 26.2751 22.277 26.0226ZM12 8.75C12 7.09604 13.346 5.75 15 5.75C16.654 5.75 18 7.09604 18 8.75C18 10.404 16.654 11.75 15 11.75C13.346 11.75 12 10.404 12 8.75Z" fill="white"/>
</mask>
<g mask="url(#mask0_6624_9287)">
</g>
</svg>
