<svg width="170" height="122" viewBox="0 0 170 122" fill="none" xmlns="http://www.w3.org/2000/svg">
    <path d="M113.333 113.333V17.436A17.485 17.485 0 0 0 95.897 0h-78.46A17.488 17.488 0 0 0 0 17.436v78.461a17.487 17.487 0 0 0 17.436 17.436h95.897z" fill="#C9E5F8"/>
    <mask id="a" style="mask-type:alpha" maskUnits="userSpaceOnUse" x="0" y="0" width="170" height="114">
        <path d="M0 113.333V17.436c.015-4.62 1.987-9.047 5.488-12.314C8.988 1.855 13.73.014 18.682 0h132.636c4.951.014 9.694 1.855 13.194 5.122 3.501 3.267 5.473 7.694 5.488 12.314v78.461c-.015 4.62-1.987 9.047-5.488 12.314-3.5 3.267-8.243 5.109-13.194 5.122H0z" fill="#fff"/>
    </mask>
    <g mask="url(#a)">
        <path fill-rule="evenodd" clip-rule="evenodd" d="M52.619 32.38c0 11.179-9.061 20.239-20.238 20.239-11.178 0-20.238-9.06-20.238-20.238 0-11.178 9.06-20.238 20.238-20.238 11.177 0 20.238 9.06 20.238 20.238z" fill="#009537"/>
        <path fill-rule="evenodd" clip-rule="evenodd" d="m40.14 23.545-2.154 2.262-8.681 8.735-2.529-2.45-2.249-2.263-4.403 4.43 2.248 2.264 4.685 4.713 2.155 2.262 2.248-2.262 10.929-10.997 2.249-2.264-4.497-4.43z" fill="#F3F4F7"/>
        <path fill-rule="evenodd" clip-rule="evenodd" d="M138.15 78.322s18.749 14.901 24.209 17.605c0 0-3.675 2.126-6.143 7.797-2.467 5.67-2.406 9.002-2.406 9.002s-8.5-4.25-15.66-7.305v-27.1z" fill="#383E8A"/>
        <path d="m92.557 69.214 8.414 3.595c2.065 1.836 7.572 4.666 7.572 4.666l8.643-8.26h.229c.153 0 .459.076.841.152.536.077 1.148.306 1.913.536 6.807 1.835 22.945 7.419 23.098 18.127.153 11.396-3.212 23.022-5.507 32.277-.153.765-.382 1.453-.535 2.141-.077.23-.077.459-.153.689-1.377 6.119-1.53 8.949-1.53 8.949v.076c0 15.756-12.773 28.529-28.529 28.529-14.15 0-25.852-10.249-28.147-23.787v-.153c-.076-.306-.076-.612-.153-.841 0-.077 0-.153-.076-.306-.306-2.065-1.224-6.807-3.365-16.368v-.077c-.23-1.147-.536-2.294-.765-3.441-3.672-16.445-7.19-34.419-7.343-34.954 3.671-6.655 16.674-9.561 25.393-11.55z" fill="#001A73"/>
        <path fill-rule="evenodd" clip-rule="evenodd" d="M73.963 113.266c16.317 6.924 30.498 9.871 37.678 6.517 9.832-4.623 16.977-24.561 20.544-45.286-4.386-2.306-9.073-3.8-12.016-4.594-.21-.063-.408-.126-.596-.186-.499-.158-.928-.294-1.317-.35-.102-.02-.199-.04-.289-.06-.246-.052-.44-.093-.552-.093h-.229l-8.643 8.26s-5.507-2.83-7.572-4.665l-8.414-3.595-.26.06c-8.716 1.987-21.498 4.901-25.133 11.49.04.142.319 1.516.775 3.765 1.174 5.796 3.526 17.405 6.024 28.737z" fill="#FF8D00"/>
        <path d="M80.472 106.157c1.759-4.13 3.748-8.184 5.89-12.161L66.856 81.452s-4.436 6.654-8.26 18.663l21.875 6.042z" fill="#FF8D00"/>
        <path d="M76.572 99.426c-6.42 0-11.626-5.205-11.626-11.626 0-6.42 5.205-11.625 11.626-11.625 6.42 0 11.626 5.205 11.626 11.625 0 6.421-5.205 11.626-11.626 11.626z" fill="#FF8D00"/>
        <path d="M80.473 106.157s-4.819 11.549-6.425 17.898c0 0-2.218-2.065-9.79-3.595-7.572-1.53-10.02-.459-10.02-.459s.153-8.184 4.283-19.886c0 0 4.284-1.071 12.238 1.3 7.955 2.371 9.714 4.742 9.714 4.742z" fill="#001A73"/>
        <path d="M109.488 77.714c-4.873 0-12.029-3.891-12.029-8.365V55.131h17.573v18.132s-3.148 4.451-5.544 4.451z" fill="#905D43"/>
        <path d="M90.19 42.43s-7.11-9.425-3.195-22.684c3.914-13.26 20.448-11.582 20.448-11.582s20.129-1.678 19.091 20.927c-.4 7.828-4.074 12.221-4.074 12.221l-32.27 1.119z" fill="#19120E"/>
        <path d="M110.638 18.069h-.719l-7.349.08c-9.825.08-16.774 14.537-14.218 25.56.08.32 1.118.56 1.198.799l.64 3.434c.878 3.196-1.04 19.81 16.534 19.81 16.295-.08 15.895-16.694 16.694-19.89l.799-3.993c.08-.16.559-.4.559-.72.319-5.111.399-26.358-14.138-25.08z" fill="#905D43"/>
        <path d="M128.85 41.313c-.16-3.515-2.955-5.512-6.31-4.394-3.355 1.119-5.911 4.873-5.751 8.388.159 3.514 6.31 4.393 6.31 4.393s5.911-4.873 5.751-8.387zM84.599 40.194c.16-3.515 2.955-5.512 6.31-4.393 3.355 1.118 5.91 4.872 5.751 8.387-.16 3.514-6.31 4.393-6.31 4.393s-5.911-4.793-5.751-8.387z" fill="#905D43"/>
        <path d="M87.234 25.657c.32 9.505-.08 10.304-.08 10.304 2.077-.879 4.074 3.674 4.074 3.674V29.41l-3.994-3.755zM125.256 19.107l-2.556 9.265c-.16.64-.24 1.278-.16 1.917.24 2.237.319 5.113.319 5.113l-.159 4.792s1.118-3.594 3.195-3.355c0 0 2.556-12.22-.639-17.732z" fill="#19120E"/>
        <path fill-rule="evenodd" clip-rule="evenodd" d="M94.604 36.313c1.17-.18 3.383-.197 7.413.593a.8.8 0 0 0 .308-1.57c-4.118-.808-6.537-.825-7.964-.605-.718.11-1.204.283-1.533.46-.165.089-.29.179-.385.261a1.383 1.383 0 0 0-.178.189l-.008.01-.004.006-.002.002c0 .001-.002.003.654.462l-.656-.46a.8.8 0 0 0 1.256.99.683.683 0 0 1 .081-.05c.135-.073.438-.2 1.018-.288zm-1.045.27v-.001zM118.608 34.73c-1.427-.219-3.846-.202-7.964.605a.8.8 0 1 0 .308 1.57c4.029-.79 6.243-.772 7.412-.593.581.09.884.216 1.019.289.043.023.068.04.081.05a.801.801 0 0 0 1.255-.99l-.655.46c.655-.46.654-.46.654-.462l-.002-.002-.004-.005-.008-.011-.017-.023a1.395 1.395 0 0 0-.161-.166 2.103 2.103 0 0 0-.385-.26c-.33-.178-.815-.351-1.533-.461z" fill="#372719"/>
        <path fill-rule="evenodd" clip-rule="evenodd" d="M98.897 38.511c-.577 0-1.044.468-1.044 1.044v2.477a1.044 1.044 0 1 0 2.087 0v-2.477c0-.576-.467-1.044-1.043-1.044zM114.552 38.511c-.577 0-1.044.468-1.044 1.044v2.477a1.044 1.044 0 1 0 2.088 0v-2.477c0-.576-.468-1.044-1.044-1.044z" fill="#1B1F2F"/>
        <path fill-rule="evenodd" clip-rule="evenodd" d="M108.945 40.281a.56.56 0 0 0-.456.648l1.508 8.735c-.025.804-.736 1.313-1.356 1.313h-3.514a.56.56 0 1 0 0 1.12h3.514c1.126 0 2.477-.911 2.477-2.477a.509.509 0 0 0-.008-.096l-1.517-8.786a.561.561 0 0 0-.648-.457z" fill="#724B35"/>
        <path d="M106.804 55.37h-6.709s.399 4.234 6.709 4.234c6.311 0 6.87-4.233 6.87-4.233h-6.87z" fill="#fff"/>
        <path fill-rule="evenodd" clip-rule="evenodd" d="M97.114 65.312a.4.4 0 0 0 .14.548c1.822 1.076 4.848 2.212 9.47 2.212 3.569 0 6.188-.73 8.007-1.64a.4.4 0 0 0-.358-.716c-1.696.848-4.19 1.556-7.649 1.556-4.484 0-7.37-1.1-9.063-2.101a.4.4 0 0 0-.547.14z" fill="#724B35"/>
        <path d="M123.019 27.334c0 .879-1.917-2.796-5.032-1.997-6.071 1.518-16.774 6.87-26.839 4.074 0 0-4.393-1.278-4.633-4.793-.24-3.514 3.675-9.345 5.831-9.425 4.394-.16 23.644-2.636 27.718-.32 4.073 2.317 2.955 12.461 2.955 12.461z" fill="#19120E"/>
        <path d="M115.031 65.755c0 4.313-2.636 7.189-5.671 11.981l6.39 5.911c2.716-3.834 2.876-8.706 3.115-13.739l-3.834-4.153z" fill="#001A73"/>
        <path d="M97.459 65.755c1.437 3.674 4.792 6.47 11.981 11.981l-5.272 6.39c-6.07-3.754-10.064-9.265-11.422-14.936l4.713-3.435z" fill="#001A73"/>
        <path fill-rule="evenodd" clip-rule="evenodd" d="M141.693 72.02c-2.554-3.455-5.348.3-8.412-.3l-5.228-1.082c-3.004-1.171-3.004-2.914-1.652-3.695-1.443-1.021-1.443-3.425-.301-4.326-1.472-1.172-1.111-3.816.18-4.206-1.231-.3-1.592-.691-1.291-1.893.3-1.292 1.502-1.953 2.764-1.683l7.631.21c.51-2.433.15-3.725-.121-5.287-.3-1.682.031-2.944 1.052-4.146 1.082-1.262 2.884-1.742 2.824.06 0 .841-.661 2.404 0 4.807.541 2.013.751 5.318 4.837 9.043 1.833 1.653 2.944 2.254 4.387 4.537 1.021 2.133-.061 1.051.03 2.133.18 3.155-1.563 7.21-6.7 5.829z" fill="#905D43"/>
        <path fill-rule="evenodd" clip-rule="evenodd" d="M125.379 68.385c.03-.72.301-1.111.751-1.592-.721-.36-1.201-1.082-1.261-1.953a2.286 2.286 0 0 1 1.171-2.163c-.751-.36-1.262-1.082-1.322-1.983-.06-.961.421-1.773 1.202-2.193-1.232-.33-1.682-1.412-1.352-2.404.421-1.261 1.713-1.442 2.854-1.382l6.099.3c-.27.572-1.682.602-1.502 2.554.06.932.511 1.743-.331 2.614-.03.03-.03.06 0 .09-.09.12-.18.24-.21.36-.18.692-.24 1.503.18 2.014.181.24.421.48.571.751.301.57-.12 1.051-.27 1.232-.18.24-.271.54-.271.841 0 .66.331 1.232.601 1.803.151.3.271.57.271.93 0 .752-.511 1.173-.511 1.683 0 1.082.931 1.503 1.202 1.863l-4.747-.961c-.361-.06-.721-.18-1.082-.3-1.171-.451-1.953-.722-2.043-2.104z" fill="#724B35"/>
        <path fill-rule="evenodd" clip-rule="evenodd" d="m148.303 64.089 3.094 6.4-5.949 6.579-3.755-5.048 6.61-7.931z" fill="#905D43"/>
    </g>
    <path fill-rule="evenodd" clip-rule="evenodd" d="M141.262 74.659c1.759 6.431 5.279 15.084 7.458 23.826 2.389 9.712 5.09 14.241 5.09 14.241s8.402 4.142 12.838 2.594c2.127-.762 2.349-7.55.512-14.349-1.575-5.75-3.323-9.467-6.63-16.16-4.699-9.53-9.324-18.025-9.324-18.025 1.234 2.441-5.403 7.741-9.944 7.873z" fill="#001A73"/>
</svg>
