<svg width="21" height="20" viewBox="0 0 21 20" fill="none" xmlns="http://www.w3.org/2000/svg">
<g clip-path="url(#clip0_6624_9607)">
<path fill-rule="evenodd" clip-rule="evenodd" d="M0.731501 17.0798C0.407448 17.6353 0.808154 18.3329 1.45128 18.3329H18.9654C19.6085 18.3329 20.0092 17.6353 19.6851 17.0798L10.9281 2.06771C10.6066 1.51648 9.81009 1.51648 9.48854 2.06771L0.731501 17.0798Z" fill="#FDD732"/>
<path fill-rule="evenodd" clip-rule="evenodd" d="M11.0417 8.33341C11.0417 7.8732 10.6686 7.50012 10.2084 7.50012C9.74815 7.50012 9.37507 7.8732 9.37507 8.33341V11.6666C9.37507 12.1268 9.74815 12.4999 10.2084 12.4999C10.6686 12.4999 11.0417 12.1268 11.0417 11.6666V8.33341ZM11.25 14.9998C11.25 14.4245 10.7836 13.9581 10.2084 13.9581C9.6331 13.9581 9.16675 14.4245 9.16675 14.9998C9.16675 15.575 9.6331 16.0414 10.2084 16.0414C10.7836 16.0414 11.25 15.575 11.25 14.9998Z" fill="#1F1E2F"/>
</g>
<defs>
<clipPath id="clip0_6624_9607">
<rect width="20.8323" height="17.4991" fill="white" transform="translate(0.000488281 0.833801)"/>
</clipPath>
</defs>
</svg>
